<?xml version="1.0" encoding="UTF-8"?>
<!-- Carrd Icons SVG | carrd.co | License: MIT, SIL OFL -->
<!-- Some icons courtesy of Font Awesome (fontawesome.io, SIL OFL) and Icomoon (icomoon.io, MIT). All logos and trademarks are property of their respective owners. -->
<svg xmlns="http://www.w3.org/2000/svg" version="1.1" xmlns:xlink="http://www.w3.org/1999/xlink" viewBox="0 0 40 40" display="none" width="0" height="0">
	<symbol id="github" viewBox="0 0 40 40"><path d="M36,20.3c0,3.5-1,6.6-3.1,9.4c-2,2.8-4.7,4.7-7.9,5.8c-0.4,0.1-0.6,0-0.8-0.1c-0.2-0.2-0.3-0.4-0.3-0.6v-4.4 c0-1.3-0.4-2.3-1.1-3c0.8-0.1,1.5-0.2,2.1-0.4c0.6-0.2,1.3-0.4,2-0.8c0.7-0.4,1.2-0.8,1.7-1.4c0.5-0.5,0.8-1.3,1.1-2.2 s0.4-2,0.4-3.1c0-1.7-0.5-3.1-1.6-4.3c0.5-1.3,0.5-2.7-0.2-4.2c-0.4-0.1-1,0-1.7,0.2c-0.7,0.3-1.4,0.6-1.9,0.9L24,12.5 c-1.3-0.4-2.6-0.5-4-0.5s-2.7,0.2-4,0.5c-0.2-0.2-0.5-0.3-0.9-0.6c-0.4-0.2-0.9-0.5-1.7-0.8c-0.8-0.3-1.4-0.4-1.8-0.3 c-0.6,1.6-0.7,3-0.1,4.2c-1.1,1.2-1.6,2.6-1.6,4.3c0,1.2,0.1,2.2,0.4,3.1s0.6,1.6,1.1,2.2s1,1,1.7,1.4c0.7,0.4,1.3,0.6,2,0.8 c0.6,0.2,1.3,0.3,2.1,0.4c-0.6,0.5-0.9,1.2-1,2.1c-0.3,0.1-0.6,0.2-0.9,0.3c-0.3,0.1-0.7,0.1-1.2,0.1c-0.5,0-0.9-0.1-1.4-0.4 c-0.5-0.3-0.8-0.7-1.2-1.3c-0.3-0.4-0.6-0.8-1-1.1c-0.4-0.3-0.8-0.4-1-0.5L9,26.5c-0.3,0-0.5,0-0.6,0.1c-0.1,0.1-0.1,0.1-0.1,0.2 c0,0.1,0.1,0.2,0.2,0.3c0.1,0.1,0.2,0.2,0.3,0.2l0.1,0.1c0.3,0.1,0.6,0.4,0.9,0.8s0.5,0.7,0.7,1.1l0.2,0.5c0.2,0.5,0.5,1,0.9,1.3 c0.4,0.3,0.9,0.5,1.4,0.6c0.5,0.1,1,0.1,1.4,0.1c0.5,0,0.9,0,1.2-0.1l0.5-0.1c0,0.5,0,1.1,0,1.9c0,0.7,0,1.1,0,1.1 c0,0.2-0.1,0.5-0.3,0.6c-0.2,0.2-0.5,0.2-0.8,0.1c-3.2-1.1-5.8-3-7.9-5.8S4,23.8,4,20.3c0-2.9,0.7-5.6,2.1-8S9.5,7.8,12,6.4 s5.1-2.1,8-2.1s5.6,0.7,8,2.1s4.4,3.4,5.8,5.8S36,17.4,36,20.3L36,20.3z"/></symbol>
	<symbol id="qq" viewBox="0 0 40 40"><path d="M8.4,18c-0.1-0.2-0.1-0.5-0.1-0.9c0-0.2,0.1-0.5,0.2-0.9s0.3-0.6,0.4-0.8c0-0.3,0-0.6,0.1-0.9c0.1-0.4,0.2-0.6,0.4-0.8 c0-1.7,0.6-3.4,1.7-5.2s2.4-3,3.9-3.7c1.7-0.8,3.6-1.2,5.8-1.2c1.6,0,3.2,0.3,4.8,1c0.6,0.3,1.1,0.5,1.6,0.9c0.5,0.3,0.9,0.7,1.3,1 c0.4,0.3,0.7,0.8,1,1.2c0.3,0.5,0.5,0.9,0.8,1.3c0.2,0.4,0.4,0.9,0.6,1.5s0.3,1.1,0.5,1.6c0.1,0.5,0.3,1.1,0.4,1.8l0,0.1 c0.7,1,1,1.9,1,2.7c0,0.2-0.1,0.4-0.2,0.7s-0.2,0.5-0.2,0.7c0,0,0,0,0,0.1c0,0,0,0.1,0.1,0.1s0,0.1,0,0.1c0.9,1.4,1.6,2.6,2.2,3.8 s0.8,2.4,0.8,3.7c0,0.5-0.1,1.1-0.3,1.8s-0.6,1-1,1c-0.1,0-0.2,0-0.3-0.1c-0.1-0.1-0.2-0.2-0.3-0.3s-0.2-0.3-0.3-0.5 c-0.1-0.2-0.2-0.3-0.3-0.5c-0.1-0.1-0.1-0.3-0.2-0.5s-0.1-0.3-0.2-0.3c0,0,0,0-0.1,0l-0.1,0.1c-0.7,1.8-1.5,3.2-2.4,4 c0.2,0.2,0.6,0.5,1.1,0.7s0.9,0.5,1.2,0.7c0.3,0.3,0.5,0.7,0.6,1.2c0,0,0,0.1-0.1,0.3c0,0.1-0.1,0.3-0.1,0.3 c-0.8,1.2-2.6,1.7-5.4,1.7c-0.6,0-1.3-0.1-2-0.2c-0.7-0.1-1.3-0.2-1.8-0.4s-1.1-0.3-1.9-0.5c-0.2-0.1-0.3-0.1-0.4-0.1 c-0.2,0-0.4-0.1-0.8-0.1c-0.4,0-0.6,0-0.7,0c-0.5,0.5-1.2,0.9-2.3,1.2s-2,0.4-3,0.4c-0.4,0-0.8,0-1.2,0c-0.4,0-1-0.1-1.7-0.2 c-0.7-0.1-1.3-0.2-1.8-0.4c-0.5-0.2-0.9-0.4-1.3-0.7c-0.4-0.3-0.6-0.7-0.6-1.1c0-0.5,0.1-0.8,0.2-1.1s0.4-0.5,0.7-0.9 c0.1,0,0.4-0.1,0.7-0.2c0.4-0.1,0.6-0.2,0.9-0.2c0,0,0.1,0,0.3,0c0,0,0,0,0-0.1l0-0.1c-0.6-0.1-1.2-0.8-1.9-1.9s-1.1-2.1-1.3-2.8 l-0.1-0.1c0,0-0.1,0.1-0.2,0.4c-0.2,0.5-0.5,0.9-1,1.3s-0.9,0.6-1.4,0.7h0c0,0-0.1,0-0.1-0.1c0-0.1-0.1-0.1-0.1-0.1 c-0.3-0.6-0.4-1.2-0.4-1.8C3.9,23,5.4,20.2,8.4,18L8.4,18z"/></symbol>
	<symbol id="steam" viewBox="0 0 40 40"><path d="M32.3,14.4c0,1.2-0.4,2.2-1.3,3.1s-1.9,1.3-3.1,1.3s-2.2-0.4-3.1-1.3c-0.9-0.9-1.3-1.9-1.3-3.1s0.4-2.2,1.3-3.1 c0.9-0.9,1.9-1.3,3.1-1.3s2.2,0.4,3.1,1.3S32.3,13.2,32.3,14.4z M18.5,27.6c0-1.2-0.4-2.3-1.3-3.2c-0.9-0.9-1.9-1.3-3.2-1.3 c-0.3,0-0.6,0-1,0.1l1.9,0.8c0.9,0.4,1.6,1,2,1.9c0.4,0.9,0.4,1.8,0,2.7c-0.4,0.9-1,1.6-1.9,1.9c-0.9,0.4-1.8,0.4-2.7,0 c-0.3-0.1-0.6-0.2-1.1-0.4c-0.5-0.2-0.9-0.3-1.1-0.4c0.4,0.7,0.9,1.3,1.6,1.7c0.7,0.4,1.5,0.7,2.3,0.7c1.2,0,2.3-0.4,3.2-1.3 C18.1,29.9,18.5,28.9,18.5,27.6L18.5,27.6z M33.3,14.4c0-1.5-0.5-2.8-1.6-3.8C30.7,9.5,29.4,9,27.9,9c-1.5,0-2.8,0.5-3.9,1.6 c-1.1,1.1-1.6,2.3-1.6,3.8c0,1.5,0.5,2.8,1.6,3.9c1.1,1.1,2.4,1.6,3.9,1.6c1.5,0,2.8-0.5,3.8-1.6C32.8,17.2,33.3,15.9,33.3,14.4z M36,14.4c0,2.2-0.8,4.2-2.4,5.7c-1.6,1.6-3.5,2.4-5.7,2.4l-7.8,5.7c-0.1,1.5-0.8,2.8-1.9,3.9s-2.5,1.6-4.1,1.6 c-1.4,0-2.7-0.5-3.8-1.4s-1.8-2-2.1-3.4L4,27.3v-7.7l6.9,2.8c0.9-0.6,2-0.9,3.1-0.9c0.2,0,0.4,0,0.6,0l5.1-7.3 c0-2.2,0.8-4.1,2.4-5.7s3.5-2.4,5.7-2.4c2.2,0,4.2,0.8,5.7,2.4C35.2,10.3,36,12.2,36,14.4z"/></symbol>
	<symbol id="telegram" viewBox="0 0 40 40"><path d="M34,9.6l-4.9,22.9c-0.3,1.6-1.3,2-2.7,1.2L19,28.3l-3.6,3.5c-0.3,0.4-0.7,0.8-1.5,0.8l0.4-7.6l0,0l-0.1,0 l13.9-12.4c0.7-0.6-0.1-0.8-0.9-0.3L10.2,22.9l-7.4-2.3c-1.7-0.4-1.7-1.6,0.3-2.3l28.8-11C33.2,6.7,34.5,7.6,34,9.6z"/></symbol>
	<symbol id="weibo" viewBox="0 0 40 40"><path d="M15.4,28c0.3-0.5,0.4-0.9,0.2-1.4c-0.1-0.5-0.4-0.8-0.9-1c-0.5-0.2-1-0.2-1.5,0c-0.5,0.2-1,0.5-1.2,1 c-0.3,0.5-0.4,0.9-0.3,1.4c0.1,0.5,0.4,0.8,0.9,1c0.5,0.2,1,0.2,1.5,0.1C14.7,28.8,15.1,28.5,15.4,28L15.4,28z M17.4,25.5 c0.1-0.2,0.1-0.4,0.1-0.5c-0.1-0.2-0.2-0.3-0.4-0.4c-0.2-0.1-0.4-0.1-0.6,0c-0.2,0.1-0.3,0.2-0.4,0.4c-0.2,0.4-0.1,0.7,0.3,0.9 c0.2,0.1,0.4,0.1,0.6,0C17.1,25.8,17.3,25.7,17.4,25.5L17.4,25.5z M21,27.7c-0.6,1.4-1.7,2.4-3.3,3.1c-1.6,0.7-3.1,0.7-4.6,0.2 c-1.5-0.5-2.5-1.3-3-2.6c-0.6-1.3-0.5-2.6,0.1-3.9c0.6-1.3,1.7-2.2,3.1-2.9c1.4-0.6,2.9-0.8,4.4-0.4c1.5,0.4,2.6,1.2,3.3,2.5 C21.6,25,21.6,26.4,21,27.7L21,27.7z M27.4,24.4c-0.1-1.3-0.7-2.5-1.8-3.5c-1.1-1-2.5-1.8-4.3-2.3c-1.8-0.5-3.7-0.6-5.7-0.4 c-3.1,0.3-5.6,1.3-7.6,2.9S5,24.6,5.2,26.6c0.1,1.3,0.7,2.5,1.8,3.5s2.5,1.8,4.3,2.3S15,33,17,32.8c3.1-0.3,5.6-1.3,7.6-2.9 C26.7,28.3,27.6,26.4,27.4,24.4z M33.8,24.5c0,0.9-0.3,1.9-0.8,2.9c-0.5,1-1.3,1.9-2.3,2.8c-1,0.9-2.2,1.7-3.5,2.4 c-1.3,0.7-2.9,1.3-4.7,1.7C20.8,34.8,19,35,17,35s-3.8-0.2-5.7-0.7c-1.8-0.5-3.5-1.1-5-1.9s-2.6-1.9-3.5-3.1 c-0.9-1.3-1.3-2.6-1.3-4.1c0-1.6,0.5-3.3,1.4-5.1s2.3-3.6,4.1-5.3c2.3-2.3,4.7-4,7.1-4.9S18.1,9,19.2,10c0.9,0.9,1,2.3,0.4,4.3 c-0.1,0.2-0.1,0.3,0,0.4c0,0.1,0.1,0.1,0.2,0.1c0.1,0,0.2,0,0.3,0s0.2,0,0.3-0.1l0.1,0c1.9-0.8,3.6-1.2,5.1-1.2s2.5,0.4,3.2,1.3 c0.6,0.9,0.6,2.1,0,3.7c0,0.2-0.1,0.3-0.1,0.4c0,0.1,0,0.2,0.1,0.3c0.1,0.1,0.2,0.1,0.2,0.2c0.1,0,0.2,0.1,0.4,0.1 c0.8,0.2,1.5,0.6,2.1,1c0.6,0.4,1.2,1,1.7,1.7C33.6,22.8,33.8,23.6,33.8,24.5L33.8,24.5z M32.3,11.6c0.6,0.6,1,1.4,1.1,2.2 c0.2,0.8,0.1,1.7-0.1,2.4c-0.1,0.3-0.3,0.6-0.6,0.7c-0.3,0.2-0.6,0.2-0.9,0.1c-0.3-0.1-0.6-0.3-0.7-0.6c-0.2-0.3-0.2-0.6-0.1-0.9 c0.3-0.9,0.1-1.6-0.5-2.3c-0.6-0.7-1.3-0.9-2.2-0.7c-0.3,0.1-0.6,0-0.9-0.2c-0.3-0.2-0.5-0.4-0.5-0.8c-0.1-0.3,0-0.6,0.2-0.9 c0.2-0.3,0.4-0.5,0.8-0.5c0.8-0.2,1.6-0.1,2.5,0.1C31,10.5,31.7,11,32.3,11.6L32.3,11.6z M36,8.2c1.2,1.3,2,2.9,2.3,4.6 s0.3,3.4-0.3,5c-0.1,0.4-0.4,0.6-0.7,0.8c-0.3,0.2-0.7,0.2-1.1,0.1c-0.4-0.1-0.6-0.4-0.8-0.7c-0.2-0.3-0.2-0.7-0.1-1.1 c0.4-1.1,0.5-2.3,0.2-3.6c-0.2-1.2-0.8-2.3-1.7-3.3c-0.9-1-1.9-1.6-3.1-2c-1.2-0.4-2.4-0.4-3.6-0.2c-0.4,0.1-0.7,0-1.1-0.2 c-0.3-0.2-0.5-0.5-0.6-0.9s0-0.7,0.2-1.1c0.2-0.3,0.5-0.5,0.9-0.6c1.7-0.4,3.4-0.3,5,0.2C33.4,6,34.8,6.9,36,8.2L36,8.2z"/></symbol>
	<symbol viewBox="0 0 40 40" id="email">
		<path stroke="#000" id="svg_6" d="m36.166291,8.906394l-32.335165,0l16.167583,8.927132l16.167583,-8.927132zm-15.21047,12.73008c-0.297079,0.164526 -0.62645,0.247418 -0.955821,0.247418s-0.658741,-0.082891 -0.957113,-0.247418l-16.480162,-9.096682l0,18.553815l34.874549,0l0,-18.553815l-16.481454,9.096682z" stroke-width="1.5" fill="#fff"/>
		<path d="m5.686906,9.152871c0,0 0.062502,0 0.125005,0c0.062502,0 0.143312,0.018307 0.187508,0.062502c0.044196,0.044196 0.125005,0.062503 0.187508,0.125006c0.062503,0.062503 0.129763,0.038584 0.187508,0.062503c0.081663,0.033826 0.06726,0.101086 0.125005,0.125005c0.081664,0.033826 0.080809,0.08081 0.125005,0.125005c0.044196,0.044196 0.168347,0.028677 0.25001,0.062503c0.057745,0.023919 0.143312,-0.044196 0.187508,0c0.044196,0.044196 0.08081,0.018307 0.125005,0.062503c0.044196,0.044196 0.062503,0.062503 0.125005,0.062503c0.062503,0 0.113989,0.030392 0.25001,0.062502c0.121661,0.02872 0.238994,0.092896 0.375015,0.125006c0.121661,0.028721 0.187508,0.062502 0.25001,0.062502c0.187508,0 0.312513,0.062503 0.437518,0.062503c0.125006,0 0.238995,0.030393 0.375016,0.062503c0.121661,0.02872 0.187508,0 0.25001,0c0.125006,0 0.312513,0 0.437518,0c0.187509,0 0.312513,0 0.375016,0c0.062502,0 0.080809,-0.018307 0.125005,-0.062503c0.044196,-0.044196 0.205814,0.044196 0.25001,0c0.044196,-0.044196 0.062503,-0.062503 0.125005,-0.062503c0.062503,0 0.25001,-0.062502 0.437518,-0.062502c0.25001,0 0.500021,0 0.625027,0c0.125005,0 0.312512,0 0.375015,0c0.187508,0 0.312513,0.062502 0.437518,0.062502c0.125005,0 0.31332,-0.010012 0.375015,0c0.195099,0.03166 0.312513,0.062503 0.500021,0.062503c0.187508,0 0.437518,0 0.625026,0c0.125006,0 0.312513,0.062503 0.500021,0.062503c0.125005,0 0.375015,0 0.500021,0c0.187508,0 0.375015,0 0.562523,0c0.187508,0 0.375016,0 0.562523,0c0.187508,0 0.355856,-0.028676 0.437519,-0.062503c0.11549,-0.047838 0.242418,-0.093345 0.437517,-0.125005c0.185087,-0.030035 0.426502,-0.030393 0.562525,-0.062503c0.182491,-0.04308 0.378359,0.02872 0.500019,0c0.136023,-0.03211 0.250011,-0.062503 0.437519,-0.062503c0.125006,0 0.312513,0 0.500021,0c0.187508,0 0.375015,0 0.625025,0c0.375017,0 0.750032,0 1.062546,0c0.375015,0 0.750031,0 1.125046,0c0.375015,0 0.687529,0 1.062544,0c0.375015,0 0.750031,0 1.062544,0c0.312513,0 0.619263,0.031015 0.875036,0.062503c0.372206,0.045821 0.628256,-0.040048 0.875036,0c0.195099,0.03166 0.369253,0.093518 0.625027,0.125005c0.186102,0.02291 0.437517,0 0.562523,0c0.125006,0 0.250011,0 0.500021,0c0.25001,0 0.557884,-0.031098 0.875036,-0.062502c0.310993,-0.030794 0.751131,-0.031487 1.18755,-0.062503c0.440847,-0.03133 0.744267,-0.093518 1.000042,-0.125005c0.186102,-0.02291 0.312511,-0.062503 0.437517,-0.062503c0.125006,0 0.250011,0 0.312513,0c0.062502,0 0.125006,0 0.187508,0c0.125006,0 0.314186,0.01436 0.375015,0c0.136023,-0.03211 0.250011,-0.062503 0.437519,-0.062503c0.062504,0 0.187508,-0.062503 0.250011,-0.062503c0.0625,0 0.125004,0 0.250008,0c0.062504,0 0.125008,0 0.125008,-0.062502l0.125004,0l0.062504,0l0.0625,0" id="svg_10" fill-opacity="null" stroke-opacity="null" stroke-width="1.5" stroke="#000" fill="none"/>
		<path d="m9.312057,11.027948c0,0 0.067261,0.023918 0.125005,0c0.081663,-0.033826 0.187509,-0.062502 0.375016,-0.062502c0.125005,0 0.25001,0 0.312512,0c0.062503,0 0.125006,0 0.187509,0c0.062502,0 0.25001,0 0.437518,0c0.25001,0 0.437518,0 0.625026,0c0.25001,0 0.500021,0 0.687529,0c0.187508,0 0.312512,0 0.437518,0c0.25001,0 0.437518,0 0.687529,0c0.25001,0 0.501595,-0.007418 0.812533,0.062502c0.251427,0.056538 0.500021,0.062503 0.812533,0.062503c0.312513,0 0.627368,-0.038184 0.937539,0c0.255774,0.031487 0.557885,0.093601 0.875037,0.125005c0.37319,0.036953 0.750031,0 1.062544,0c0.375015,0 0.625025,0 0.875036,0c0.312513,0 0.562523,0 0.875036,0c0.312513,0 0.562523,0 0.937538,0c0.312513,0 0.562523,0 0.875036,0c0.250011,0 0.437519,0 0.562523,0c0.18751,0 0.431755,-0.031015 0.687529,-0.062502c0.248138,-0.030547 0.437519,0 0.625027,0c0.187508,0 0.375015,0 0.625027,0c0.25001,0 0.500019,0 0.750031,0c0.187508,0 0.375015,0 0.625025,0c0.250011,0 0.500021,0 0.750032,0c0.187508,0 0.375015,0 0.562523,0c0.187508,0 0.312513,0 0.437519,0c0.125004,0 0.25001,0 0.375015,0c0.187508,0 0.437517,0 0.625025,0c0.125006,0 0.312513,0 0.500021,0c0.125006,0 0.250011,0 0.437519,0c0.125004,0 0.375015,0 0.562523,0c0.187508,0 0.375015,0 0.562523,0c0.125006,0 0.187508,0 0.312513,0c0.125006,0 0.25001,0 0.375015,0l0.125006,0l0.062502,0l0.062504,0" id="svg_11" fill-opacity="null" stroke-opacity="null" stroke-width="1.5" stroke="#000" fill="none"/>
		<path d="m32.500519,10.34042c-0.125004,0 -0.190853,-0.02872 -0.312511,0c-0.136024,0.03211 -0.315098,0.052955 -0.562525,0.125006c-0.189768,0.055261 -0.367424,0.155848 -0.562523,0.187508c-0.061697,0.010012 -0.168346,0.028677 -0.250011,0.062503c-0.057745,0.023918 -0.134521,0.014666 -0.25001,0.062502c-0.081665,0.033826 -0.125006,0.062503 -0.187508,0.062503c-0.062504,0 -0.080809,0.018307 -0.125006,0.062503c-0.044195,0.044195 -0.134521,-0.047836 -0.25001,0c-0.081665,0.033826 -0.192266,0.038585 -0.250011,0.062503c-0.081663,0.033826 -0.187977,0.117368 -0.25001,0.125005c-0.255775,0.031487 -0.439095,0.117588 -0.750032,0.187508c-0.251425,0.056538 -0.435257,0.132247 -0.625025,0.187508c-0.247429,0.072052 -0.500021,0.125005 -0.750032,0.187508c-0.25001,0.062502 -0.442533,0.144428 -0.625025,0.187509c-0.136021,0.03211 -0.168346,0.153682 -0.250011,0.187508c-0.057745,0.023918 -0.062502,0.062502 -0.125004,0.062502c-0.187508,0 -0.375015,0.062503 -0.625027,0.062503c-0.187508,0 -0.500021,0 -0.812534,0c-0.437517,0 -0.812532,0 -1.187548,0c-0.437519,0 -0.93754,0 -1.437561,0c-0.500021,0 -1.003025,0.054561 -1.500061,0c-0.572805,-0.062878 -0.996712,-0.156178 -1.437561,-0.187508c-0.436417,-0.031015 -0.812532,-0.062503 -1.187548,-0.125005c-0.375017,-0.062503 -0.683651,-0.093647 -1.062546,-0.125006c-0.311447,-0.025776 -0.687527,-0.062503 -1.00004,-0.062503c-0.375016,0 -0.683651,-0.031144 -1.062545,-0.062502c-0.311447,-0.025776 -0.687529,0 -1.000041,0c-0.375016,0 -0.628255,0.040048 -0.875036,0c-0.195098,-0.03166 -0.312513,-0.062503 -0.437518,-0.062503c-0.187509,0 -0.312513,0 -0.500021,0c-0.25001,0 -0.437518,0 -0.625026,0c-0.125006,0 -0.25001,0 -0.312513,0c-0.062503,0 -0.125005,0 -0.187508,0c-0.125006,0 -0.206883,-0.021095 -0.375015,-0.125006c-0.075191,-0.04647 -0.161619,-0.036613 -0.25001,-0.125005c-0.044196,-0.044196 -0.134521,-0.014666 -0.25001,-0.062503c-0.081663,-0.033826 -0.125006,-0.062502 -0.25001,-0.125005c-0.125005,-0.062503 -0.187508,-0.125005 -0.25001,-0.125005c-0.062503,0 -0.105844,-0.09118 -0.187508,-0.125006c-0.057745,-0.023919 -0.11399,-0.092895 -0.25001,-0.125005c-0.060831,-0.01436 -0.105844,-0.096329 -0.187508,-0.062503c-0.057745,0.023919 0.009516,0.077168 0.125005,0.125005c0.081664,0.033826 0.187508,0.125006 0.312513,0.187509c0.125005,0.062502 0.310253,0.132247 0.500021,0.187508c0.247428,0.072051 0.376687,0.173147 0.437518,0.187508c0.136021,0.03211 0.189929,0.094969 0.375015,0.125005c0.195098,0.03166 0.304923,0.155848 0.500021,0.187508c0.061695,0.010012 0.136631,0.043285 0.25001,0.125006c0.071707,0.051683 0.199134,0.105788 0.312512,0.187508c0.071708,0.051684 0.213688,0.151185 0.312513,0.25001c0.098825,0.098825 0.168346,0.153682 0.25001,0.187508c0.057744,0.023918 0.129763,0.038585 0.187508,0.062503c0.081663,0.033826 0.187508,0.125005 0.25001,0.125005c0.062503,0 0.072019,0.014666 0.187508,0.062503c0.081664,0.033826 0.199134,0.105788 0.312512,0.187508c0.071708,0.051684 0.11399,0.155397 0.25001,0.187508c0.060831,0.01436 0.136632,0.105789 0.25001,0.187508c0.071708,0.051683 0.176492,0.155398 0.312513,0.187509c0.060831,0.01436 0.1158,0.07332 0.187508,0.125005c0.113379,0.081719 0.224121,0.036613 0.312513,0.125005c0.044196,0.044196 0.080809,0.106699 0.125005,0.062503c0.044196,-0.044196 0,-0.125005 0,-0.25001c0,-0.25001 0.057441,-0.444206 0,-0.687529c-0.03211,-0.136021 -0.244861,-0.336693 -0.312513,-0.50002c-0.023919,-0.057745 0.062503,-0.062503 0.187509,-0.062503c0.25001,0 0.621148,0.156149 1.000041,0.187508c0.373738,0.030931 0.750031,0.062503 1.062545,0.062503c0.312511,0 0.687529,0.062502 1.062544,0.062502c0.375015,0 0.812532,0 1.18755,0c0.375015,0 0.689354,-0.036953 1.062544,0c0.317152,0.031404 0.62685,0.02555 1.00004,0.062503c0.317152,0.031404 0.625027,0.062503 0.93754,0.062503c0.375015,0 0.750031,0 1.18755,0c0.312511,0 0.625025,0 1.00004,-0.062503c0.375017,-0.062503 0.752375,-0.086821 1.062546,-0.125005c0.255774,-0.031487 0.500019,-0.062503 0.750031,-0.062503c0.312513,0 0.625025,0 0.937538,0c0.187508,0 0.312513,-0.062503 0.375015,-0.062503c0.062504,0 0.064177,-0.048141 0.125006,-0.062502c0.136023,-0.03211 0.238995,-0.092896 0.375015,-0.125006c0.121662,-0.028721 0.250011,0 0.375015,0c0.125006,0 0.168348,-0.091179 0.250011,-0.125005c0.057745,-0.023918 0.129763,0.023919 0.187508,0c0.081663,-0.033827 0.187508,-0.062503 0.25001,-0.062503c0.062504,0 0.062504,-0.062503 0.125006,-0.062503l0.062502,0" id="svg_12" fill-opacity="null" stroke-opacity="null" stroke-width="1.5" stroke="#000" fill="none"/>
		<path d="m15.624819,13.278042c0.25001,0 0.500021,0 0.875036,0c0.437517,0 0.938505,-0.031433 1.437559,-0.062503c0.502939,-0.031311 1.063309,-0.03485 1.562565,-0.062502c0.565119,-0.0313 1.125048,-0.062503 1.687571,-0.062503c0.437517,0 0.812534,0 1.18755,0c0.437517,0 0.812532,0 1.187548,0c0.375017,0 0.750032,0 1.125048,0c0.312513,0 0.625027,-0.062503 0.937538,-0.062503c0.250011,0 0.562525,0 0.750032,0c0.187508,0 0.25001,0 0.312511,0c0.062504,0 0.125006,0 0.062504,0c-0.062504,0 -0.315323,-0.045821 -0.687529,0c-0.511549,0.062975 -1.004236,0.157234 -1.562565,0.25001c-0.568451,0.094459 -1.122921,0.156224 -1.812576,0.187508c-0.686821,0.031155 -1.250051,0.062503 -1.812574,0.062503c-0.437517,0 -0.812534,0.062503 -1.250051,0.062503c-0.375015,0 -0.68289,0.031098 -1.000042,0.062502c-0.310993,0.030794 -0.500021,0 -0.750031,0c-0.187508,0 -0.437519,0 -0.562523,0c-0.250011,0 -0.437519,0 -0.625027,0c-0.187508,0 -0.375015,0 -0.562523,0c-0.25001,0 -0.38929,-0.071756 -0.562524,0c-0.081664,0.033826 -0.25001,0.062503 -0.312513,0.062503c-0.187508,0 -0.268317,0.018308 -0.312512,0.062503c-0.044196,0.044196 0,0.125005 0.062502,0.125005c0.062503,0 0.251227,-0.024635 0.500021,0c0.317151,0.031404 0.502441,0.032467 0.687529,0.062503c0.195099,0.03166 0.375015,0.062503 0.562523,0.062503c0.187508,0 0.312513,0 0.375015,0c0.125006,0 0.250011,0 0.500021,0c0.250011,0 0.562525,-0.062503 0.812534,-0.062503c0.312513,0 0.619263,-0.031015 0.875036,-0.062503c0.248137,-0.030547 0.562523,0 0.937538,0c0.375017,0 0.681765,-0.031015 0.93754,-0.062502c0.186102,-0.02291 0.312513,0 0.437517,0c0.125006,0 0.369253,-0.031015 0.625027,-0.062503c0.310171,-0.038184 0.625027,0 0.875036,0c0.187508,0 0.377436,0.030036 0.562523,0c0.195099,-0.03166 0.375015,-0.062503 0.562523,-0.062503c0.18751,0 0.375017,0 0.625027,0c0.187508,0 0.312513,0 0.437519,0c0.062502,0 0.143311,-0.044197 0.187508,0c0.044197,0.044196 0.080809,0.018308 0.125004,0.062503c0.044197,0.044196 -0.063908,0.102095 -0.25001,0.125005c-0.255775,0.031487 -0.501427,0.102096 -0.687529,0.125006c-0.255774,0.031487 -0.500874,0.104383 -0.750031,0.125005c-0.378895,0.031359 -0.690338,0.016683 -1.062544,0.062503c-0.255775,0.031487 -0.500021,0.062503 -0.687529,0.062503c-0.187508,0 -0.437519,0.062502 -0.750032,0.062502c-0.312513,0 -0.687529,0 -1.062544,0c-0.375015,0 -0.750031,0 -1.125046,0c-0.375015,0 -0.625027,0 -1.000042,0c-0.312513,0 -0.562523,0 -0.812534,0c-0.25001,0 -0.500021,0 -0.750031,0c-0.25001,0 -0.375015,0 -0.562523,0c-0.062504,0 -0.187509,0 -0.25001,0c-0.062503,0 -0.120248,-0.023919 -0.062503,0c0.081664,0.033826 0.306749,0.156021 0.562523,0.187508c0.372206,0.04582 0.687529,0.062503 1.125048,0.062503c0.375015,0 0.625025,0 0.875036,0c0.25001,0 0.494257,0.031015 0.750031,0.062503c0.248137,0.030547 0.438923,-0.022911 0.625027,0c0.255774,0.031487 0.500019,0.062503 0.750031,0.062503c0.25001,0 0.500021,0 0.750031,0c0.250011,0 0.500021,0 0.750032,0c0.187508,0 0.375015,0 0.625025,0c0.312513,0 0.625027,0.062502 0.875036,0.062502c0.187508,0 0.187508,0.062503 0.125006,0.062503c-0.125006,0 -0.370377,0.031098 -0.687529,0.062503c-0.310993,0.030794 -0.687529,0.062503 -1.125048,0.062503c-0.375015,0 -0.750031,0 -1.062544,0c-0.312511,0 -0.562523,0 -0.750031,0c-0.187508,0 -0.375015,0 -0.500021,0c-0.187508,0 -0.375015,0 -0.562523,0c-0.187508,0 -0.312513,0 -0.562523,0c-0.187508,0 -0.375017,0 -0.625027,0c-0.125006,0 -0.312513,-0.062504 -0.312513,0c0,0.062504 0.125006,0 0.312513,0c0.125006,0 0.312513,0 0.375015,0c0.125006,0 0.250011,0 0.437519,0c0.125004,0 0.375015,0 0.625025,0c0.312513,0 0.562525,0 0.875036,0c0.312513,0 0.562525,0 0.812534,0c0.187508,0 0.375015,0.062502 0.500021,0.062502c0.062502,0 0,0 -0.062502,0c-0.250011,0 -0.563469,-0.026585 -0.93754,0c-0.440847,0.03133 -0.875036,0.062503 -1.18755,0.062503c-0.187508,0 -0.312511,0 -0.375015,0c-0.062502,0 -0.125006,0 -0.25001,0c-0.125006,0 -0.250011,0 -0.312513,0c-0.125006,0 -0.187508,0 -0.250011,0c-0.062502,0 -0.125004,0 -0.25001,0c-0.062502,0 -0.125006,0 -0.187508,0c-0.062502,0 -0.187508,-0.062502 -0.187508,0c0,0.062502 0.125006,0 0.187508,0.062503c0.062502,0.062502 0.125006,0.062502 0.25001,0.062502c0.125006,0 0.250011,0 0.312513,0c0.062504,0 0.113989,0.030393 0.250011,0.062503c0.12166,0.02872 0.312511,0 0.562523,0c0.187508,0 0.304922,0.030843 0.500021,0.062503c0.24678,0.040048 0.440746,-0.040048 0.687529,0c0.195099,0.03166 0.25001,0.062503 0.312513,0.062503c0.062502,0 0.125004,0 0.062502,0c-0.062502,0 -0.250956,0.026585 -0.625027,0c-0.440847,-0.03133 -1.073093,-0.010874 -1.500061,-0.125006c-0.325171,-0.086921 -0.447035,-0.139669 -0.562525,-0.187508c-0.081663,-0.033827 -0.113989,-0.092895 -0.25001,-0.125005c-0.121662,-0.02872 -0.315857,0.028721 -0.437519,0c-0.136021,-0.03211 -0.253353,-0.033782 -0.375015,-0.062503c-0.136021,-0.03211 -0.230848,-0.158832 -0.312511,-0.125006c-0.057745,0.023918 0.026178,0.088683 0.125004,0.187509c0.098825,0.098825 0.325743,0.107137 0.500021,0.25001c0.136715,0.11208 0.312513,0.187509 0.500021,0.25001c0.187508,0.062503 0.31727,0.101087 0.375015,0.125006c0.081663,0.033827 0.192266,0.101086 0.250011,0.125005c0.081663,0.033827 0.197023,0.077169 0.312511,0.125006c0.081665,0.033826 0.126678,0.110644 0.187508,0.125005c0.136023,0.03211 0.322029,0.077167 0.437519,0.125005c0.163328,0.067652 0.192265,0.101088 0.25001,0.125006c0.081665,0.033825 0.176491,0.092896 0.312513,0.125006c0.121662,0.028721 0.250011,0 0.312513,0c0.062502,0 0.125006,0 0.187508,0c0.062502,0 0.125006,0 0.187508,0c0.062504,0 0.187508,0 0.312513,-0.062504c0.125006,-0.062502 0.230848,-0.091179 0.312513,-0.125004c0.115488,-0.047836 0.230848,-0.091181 0.312513,-0.125006c0.057745,-0.023918 0.105843,-0.09118 0.187508,-0.125006c0.057745,-0.023918 0.230848,-0.091178 0.312511,-0.125005c0.057745,-0.023919 0.143312,-0.018306 0.18751,-0.062503c0.044195,-0.044195 0.062502,-0.062502 0.062502,-0.125005l0.062502,0l0,-0.062503" id="svg_13" fill-opacity="null" stroke-opacity="null" stroke-width="1.5" stroke="#000" fill="none"/>
		<path d="m3.499316,13.778063c0,0 -0.030392,0.113989 -0.062503,0.25001c-0.02872,0.121661 0,0.187508 0,0.25001c0,0.062502 0,0.125005 0,0.187508c0,0.125005 0,0.187508 0,0.312512c0,0.125006 0.062503,0.187509 0.062503,0.375016c0,0.125005 0.062503,0.312512 0.125005,0.562523c0.062503,0.25001 0.094458,0.376888 0.125005,0.625027c0.031487,0.255774 0.062503,0.500021 0.125005,0.687529c0.062503,0.187508 0.062503,0.312511 0.062503,0.500019c0,0.062504 0,0.18751 0,0.312513c0,0.187508 0,0.312513 0,0.437519c0,0.125006 0,0.312513 0,0.375015c0,0.125006 0.030392,0.176491 0.062503,0.312513c0.01436,0.060829 0,0.187508 0,0.375015c0,0.187508 0,0.375015 0,0.625027c0,0.187508 0,0.437517 0,0.687527c0,0.18751 0,0.375017 0,0.562525c0,0.187508 0,0.312513 0,0.437517c0,0.187508 0,0.312513 0,0.500021c0,0.062502 0,0.250011 0,0.312513c0,0.125006 0,0.25001 0,0.312513c0,0.125004 0,0.25001 0,0.375015c0,0.125006 0,0.312513 0,0.500021c0,0.187508 0.030842,0.367424 0.062502,0.562523c0.020024,0.123392 0,0.375015 0,0.562523c0,0.125006 0,0.312513 0,0.500021c0,0.187508 0,0.437519 0,0.562523c0,0.187508 0,0.312513 0,0.500021c0,0.062504 0,0.187508 0,0.312513c0,0.125006 0,0.25001 0,0.375015c0,0.125006 0,0.250011 0,0.375015c0,0.125006 0,0.250011 0,0.437519c0,0.125006 0.062503,0.312513 0.062503,0.437517c0,0.125006 0,0.250011 0,0.375015c0,0.062504 0,0.125006 0,0.18751c0,0.062502 0,0.125004 0,0.187508c0,0.062502 0,0.125004 0,0.187508c0,0.062502 0,0.125004 0,0.187508c0,0.062502 0.044196,0.143312 0,0.187508c-0.044196,0.044197 -0.062503,0.062502 -0.062503,0.125006c0,0.062502 -0.062502,0.187508 -0.062502,0.25001c0,0.062502 -0.080809,0.106697 -0.125005,0.062502c-0.044195,-0.044195 -0.030392,-0.113987 -0.062502,-0.25001c-0.01436,-0.060829 -0.033783,-0.128349 -0.062503,-0.25001c-0.03211,-0.136023 -0.093345,-0.24242 -0.125005,-0.437519c-0.020024,-0.123392 -0.062503,-0.312513 -0.062503,-0.437519c0,-0.062502 -0.062503,-0.187508 -0.062503,-0.312511c0,-0.187508 -0.062503,-0.437519 -0.062503,-0.625027c0,-0.187508 -0.062503,-0.375015 -0.062503,-0.562523c0,-0.250011 0,-0.500021 0,-0.625027c0,-0.187508 0,-0.312513 0,-0.437517c0,-0.187508 0,-0.312513 0,-0.500021c0,-0.187508 0,-0.312513 0,-0.437519c0,-0.187508 0,-0.375015 0,-0.562523c0,-0.25001 0,-0.437517 0,-0.562523c0,-0.187508 0,-0.375015 0,-0.625027c0,-0.25001 0,-0.562523 0,-0.812532c0,-0.312513 0,-0.562525 0,-0.750032c0,-0.187508 0,-0.312511 0,-0.437517l0,-0.062504" id="svg_14" fill-opacity="null" stroke-opacity="null" stroke-width="1.5" stroke="#000" fill="none"/>
		<path d="m4.124341,14.590596c0,0.062503 0.062502,0.062503 0.062502,0.125006c0,0.062502 0.048143,0.064174 0.062503,0.125005c0.03211,0.136022 0.08081,0.143312 0.125005,0.187508c0.044196,0.044196 0.062502,0.062503 0.125005,0.125006c0.062502,0.062502 0.062503,0.125005 0.125005,0.187508c0.062503,0.062503 0.135824,0.178303 0.187508,0.25001c0.081719,0.113379 0.153682,0.105844 0.187508,0.187508c0.023919,0.057745 0.029643,0.071837 0.062502,0.125005c0.073476,0.118887 0.129763,0.101088 0.187508,0.125006c0.081663,0.033825 0.08081,0.143312 0.125005,0.187508c0.044196,0.044195 0.105844,0.028677 0.187508,0.062502c0.057745,0.023918 0.062502,0.062504 0.062502,0c0,-0.062502 0,-0.125004 0,-0.187508c0,-0.062502 0,-0.125005 0,-0.187508c0,-0.062502 0,-0.125005 0,-0.187508c0,-0.062502 -0.018306,-0.143312 -0.062502,-0.187508c-0.044196,-0.044196 -0.076863,0.064175 -0.062503,0.125006c0.03211,0.136021 0.105788,0.261636 0.187508,0.375015c0.051683,0.071707 0.077169,0.134521 0.125005,0.25001c0.033826,0.081665 0.163589,0.192265 0.187508,0.250011c0.033826,0.081663 0.091179,0.168346 0.125005,0.25001c0.047838,0.11549 0.030392,0.176491 0.062502,0.312513c0.04308,0.182491 0.062503,0.375015 0.062503,0.625027c0,0.25001 0,0.562523 -0.062503,0.875036c-0.062502,0.312511 -0.105707,0.567011 -0.187508,0.875036c-0.05073,0.191029 -0.062502,0.125004 -0.062502,0.062502c0,-0.375015 -0.10679,-0.877651 -0.187508,-1.375057c-0.102101,-0.629173 -0.187508,-1.18755 -0.187508,-1.562565c0,-0.125006 -0.011993,-0.062271 0,0.250011c0.031274,0.814333 0.125005,1.687569 0.125005,2.812616c0,1.00004 0,1.750072 0,2.250093c0,0.187508 0.071837,0.220367 0.125005,0.187508c0.237775,-0.146954 0.281241,-0.873363 0.312513,-1.750072c0.031192,-0.874479 -0.196819,-1.746758 -0.437518,-2.437601c-0.130061,-0.373295 -0.134092,-0.249125 -0.062503,0.437517c0.110943,1.064104 0.134574,2.188198 0.062503,3.250135c-0.055181,0.813065 -0.312514,1.562565 -0.062503,1.562565c0.187508,0 0.062503,-0.812534 0.062503,-1.750072c0,-1.062544 -0.109947,-2.45425 -0.375016,-3.500145c-0.242785,-0.957968 -0.232011,-1.813725 -0.562523,-1.750072c-0.061374,0.01182 0,0.125004 0,0.562523c0,0.812532 -0.00164,1.874989 -0.062502,3.000124c-0.064234,1.187458 -0.062503,2.375099 -0.062503,3.12513c0,0.375015 0.014167,0.477146 0.062503,0.437519c0.246466,-0.202053 0.2124,-0.755495 0.312513,-1.312555c0.13675,-0.760923 0.401686,-1.816128 0.500021,-2.625109c0.045876,-0.377411 0.062503,-0.562523 0.062503,-0.500021c0,0.437519 -0.055861,0.938904 -0.187508,1.562565c-0.119015,0.56382 -0.281214,1.122452 -0.312513,1.687571c-0.024195,0.436848 -0.062502,0.937538 -0.062502,1.375057c0,0.437517 0,0.750031 0,1.00004c0,0.18751 0.062502,0.375017 0.062502,0.562525c0,0.187508 0.062503,0.312511 0.062503,0.437517c0,0.187508 0.030842,0.367424 0.062502,0.562523c0.020024,0.123392 0,0.312513 0,0.562525c0,0.187508 0.062503,0.375015 0.062503,0.562523c0,0.187508 0.062502,0.312513 0.062502,0.437517c0,0.062504 0,0.187508 0,0.250011c0,0.062502 0,0.187508 0,0.25001c0,0.125006 0,0.312513 0,0.500021c0,0.125006 0,0.250011 0,0.312513c0,0.062502 0,0.125006 0,0.187508c0,0.125006 0,0.187508 0,0.25001c0,0.125006 0,0.250011 0,0.312513c0,0.062504 0.044197,0.205814 0,0.250011c-0.044196,0.044195 -0.038584,0.067259 -0.062502,0.125004c-0.033826,0.081665 -0.06726,0.101088 -0.125005,0.125006c-0.081664,0.033825 -0.105844,0.091179 -0.187508,0.125006c-0.057745,0.02392 0.000608,-0.012318 0.125005,0c0.317151,0.031404 0.687529,0.062502 1.125047,0.062502c0.437518,0 0.750031,0 0.875036,0c0.062503,0 0.062503,-0.062502 0.062503,-0.125006c0,-0.187508 -0.049682,-0.326275 -0.25001,-0.500019c-0.236089,-0.20476 -0.562523,-0.250011 -0.812534,-0.250011c-0.187508,0 -0.312513,0 -0.500021,0c-0.062503,0 -0.275766,-0.064466 -0.500021,0.062504c-0.153836,0.087101 -0.312513,0.187508 -0.437518,0.25001c-0.125005,0.062502 -0.238994,0.155397 -0.375015,0.187508c-0.060831,0.01436 -0.187508,0.125006 -0.25001,0.125006c-0.062503,0 -0.08081,0.018307 -0.125005,0.062502c-0.088392,0.088392 -0.205814,-0.044195 -0.25001,0c-0.044195,0.044195 0.062503,0.062502 0.125005,0.062502c0.125005,0 0.375016,0 0.625026,0c0.25001,0 0.437518,0 0.625026,0c0.187508,0 0.437518,0 0.687529,0c0.25001,0 0.500021,0 0.625026,-0.125004c0.125006,-0.125006 0.163589,-0.192265 0.187508,-0.250011c0.033826,-0.081663 0.062502,-0.187508 0.062502,-0.312511c0,-0.250011 0,-0.437519 0,-0.625027c0,-0.125006 0.013135,-0.317415 -0.062502,-0.500021c-0.053484,-0.129122 -0.125005,-0.312513 -0.125005,-0.437517c0,-0.062504 -0.062503,-0.250011 -0.062503,-0.375017c0,-0.187508 0,-0.437517 0,-0.687529c0,-0.312511 0,-0.687529 0,-1.00004c0,-0.312513 0,-0.750032 0,-1.062544c0,-0.312513 0.030547,-0.6269 0,-0.875038c-0.031487,-0.255774 -0.012443,-0.566559 -0.062502,-0.875036c-0.03166,-0.195099 -0.062503,-0.375015 -0.062503,-0.500019c0,-0.187508 0,-0.312513 0,-0.437519c0,-0.187508 0,-0.312513 0,-0.437517c0,-0.125006 0,-0.312513 0,-0.500021c0,-0.250011 0,-0.437519 0,-0.562525c0,-0.125004 0,-0.25001 0,-0.437517c0,-0.25001 0,-0.625027 0,-0.937538c0,-0.250011 0,-0.437519 0,-0.687529c0,-0.250011 0,-0.500021 0,-0.750032c0,-0.187508 0,-0.375015 0,-0.500021c0,-0.125004 0,-0.25001 0,-0.312511c0,-0.125006 0,-0.187508 0,-0.250011c0,-0.062502 0,-0.125004 0,-0.187508c0,-0.062502 0,-0.125006 0,-0.187508c0,-0.062502 0,-0.125006 0,-0.187508c0,-0.062502 -0.044196,-0.143312 0,-0.187508c0.044196,-0.044196 0.125005,0 0.187508,0c0.062502,0 0.143312,-0.044196 0.187508,0c0.044196,0.044195 0.018307,0.080811 0.062502,0.125006c0.044196,0.044195 0.030843,0.117413 0.062503,0.312511c0.020024,0.123392 0.062502,0.250011 0.062502,0.312513c0,0.125006 0.030843,0.24242 0.062503,0.437519c0.040047,0.24678 0,0.375015 0,0.625025c0,0.187508 0,0.312513 0,0.437519c0,0.125006 0,0.25001 0,0.375015c0,0.187508 -0.04308,0.31753 0,0.500021c0.03211,0.136023 0.042479,0.251623 0.062502,0.375015c0.03166,0.195099 0.062503,0.375015 0.062503,0.562523c0,0.250011 0.062502,0.375015 0.062502,0.562523c0,0.18751 0,0.250011 0,0.375017c0,0.125004 0,0.187508 0,0.25001c0,0.062502 0,0.187508 0,0.312513c0,0.125006 0,0.312513 0,0.437517c0,0.125006 0,0.312513 0,0.437519c0,0.187508 0,0.312513 0,0.500021c0,0.125004 0,0.25001 0,0.375015c0,0.125006 0,0.25001 0,0.375015c0,0.062502 0.062502,0.25001 0.062502,0.375015c0,0.125006 -0.01436,0.18918 0,0.250011c0.03211,0.136021 0.033782,0.253353 0.062503,0.375015c0.03211,0.136023 0.062502,0.25001 0.062502,0.375015c0,0.125006 0.030843,0.304922 0.062503,0.500021c0.030035,0.185087 0,0.375015 0,0.500021c0,0.125004 0.062502,0.25001 0.062502,0.437517c0,0.187508 0,0.437519 0,0.625027c0,0.25001 0,0.500021 0,0.687529c0,0.187508 0,0.25001 0,0.312513c0,0.125004 0,0.25001 0,0.375015c0,0.125004 0,0.187508 0,0.312513c0,0.125004 0,0.187508 0,0.25001c0,0.062502 0,0.187508 0,0.25001c0,0.062504 0,0.125006 0,0.18751c0,0.062502 0,0.125004 0,0.187508c0,0.062502 0,0.125004 0,0.187508l0,0.062502" id="svg_15" fill-opacity="null" stroke-opacity="null" stroke-width="1.5" stroke="#000" fill="none"/>
		<path d="m4.249347,14.340586c0.062502,0 0.178303,0.010818 0.25001,0.062503c0.113379,0.081719 0.23085,0.091179 0.312513,0.125005c0.057745,0.023918 0.080809,0.018307 0.125005,0.062503c0.044196,0.044196 0.080809,0.018307 0.125005,0.062503c0.044196,0.044196 0.158831,0.043342 0.125005,0.125005c-0.023919,0.057745 -0.128388,0.035459 -0.312513,0c-0.330513,-0.063651 -0.594045,-0.099628 -0.875036,-0.25001c-0.155866,-0.083417 -0.351097,-0.245253 -0.375015,-0.187508c-0.033826,0.081664 0.166967,0.218597 0.437518,0.375016c0.41209,0.23825 1.001735,0.367626 1.562565,0.50002c0.501622,0.118417 0.894067,0.091834 1.125047,0.187509c0.163327,0.067652 0.230849,0.153682 0.312513,0.187508c0.057745,0.023919 0.187508,0.062502 0.312513,0.125005c0.125005,0.062503 0.260829,0.115801 0.312513,0.187508c0.081719,0.113379 0.125006,0.125006 0.187508,0.187508c0.062503,0.062504 0.101087,0.067261 0.125005,0.125006c0.033827,0.081663 0.080808,0.080809 0.125005,0.125006c0.044196,0.044197 0.101087,0.004757 0.125006,0.062502c0.033827,0.081663 0.125005,0.125004 0.25001,0.187508c0.125006,0.062504 0.230848,0.216185 0.312512,0.250011c0.11549,0.047838 0.176493,0.092894 0.312513,0.125004c0.060831,0.01436 0.1158,0.073322 0.187508,0.125006c0.113379,0.081718 0.25001,0.125006 0.375015,0.187508c0.125006,0.062502 0.254768,0.101088 0.312513,0.125006c0.081663,0.033825 0.125004,0.125004 0.187508,0.187508c0.062503,0.062502 0.196842,0.092146 0.25001,0.125006c0.118886,0.073475 0.129763,0.163589 0.187508,0.187508c0.081663,0.033825 0.187507,0.125004 0.25001,0.187508c0.062503,0.062502 0.178303,0.135822 0.25001,0.187508c0.113379,0.081718 0.199134,0.105789 0.312512,0.187508c0.143415,0.103367 0.25001,0.125006 0.375016,0.187508c0.125005,0.062502 0.199133,0.043287 0.312512,0.125006c0.071707,0.051683 0.176492,0.155397 0.312513,0.187508c0.12166,0.028721 0.240807,0.07332 0.312513,0.125004c0.113379,0.081718 0.191632,0.117359 0.312512,0.18751c0.194912,0.113111 0.377598,0.177959 0.625026,0.25001c0.189769,0.05526 0.300366,0.15303 0.562524,0.25001c0.241698,0.089411 0.504924,0.174374 0.687529,0.250011c0.129121,0.053484 0.245894,0.134024 0.375015,0.187508c0.182605,0.075638 0.324139,0.043287 0.437518,0.125006c0.071707,0.051683 0.183392,0.07152 0.312512,0.125004c0.182606,0.075638 0.274193,0.119856 0.437519,0.187508c0.11549,0.047836 0.251682,0.048143 0.312513,0.062504c0.136021,0.03211 0.25001,0.125006 0.375015,0.187508c0.125006,0.062502 0.192265,0.101088 0.25001,0.125006c0.081665,0.033825 0.068621,0.114031 0.187508,0.187508c0.106337,0.06572 0.261637,0.043285 0.375015,0.125004c0.143415,0.103369 0.303308,0.198328 0.375017,0.250011c0.113379,0.081717 0.168346,0.153683 0.25001,0.187508c0.11549,0.047838 0.149185,0.119856 0.312513,0.187508c0.11549,0.047838 0.187508,0.062502 0.25001,0.062502c0.125006,0 0.192265,0.038584 0.250011,0.062504c0.081663,0.033825 0.113987,0.155397 0.25001,0.187508c0.121662,0.028721 0.187508,0.062502 0.250011,0.125006l0.062502,0.062502l0.125006,0.062502l0.062502,0" id="svg_16" fill-opacity="null" stroke-opacity="null" stroke-width="1.5" stroke="#000" fill="none"/>
		<path d="m7.374476,16.840691c0,0.062502 0.057396,0.132013 0.312513,0.312511c0.367935,0.260321 0.870421,0.510674 1.43756,0.750032c0.620199,0.261753 1.130869,0.424809 1.68757,0.687529c0.631961,0.298239 1.118111,0.576797 1.750072,0.875036c0.556701,0.26272 0.926555,0.465567 1.375057,0.625025c0.428735,0.15243 0.812534,0.250011 1.250052,0.312513c0.437518,0.062502 0.761092,0.14658 1.062543,0.25001c0.264391,0.090715 0.511082,0.209084 0.812534,0.312513c0.264391,0.090715 0.508272,0.234718 0.750031,0.375015c0.194914,0.113111 0.370901,0.259029 0.500021,0.312513c0.182606,0.075638 0.250011,0.125006 0.375015,0.187508c0.125006,0.062504 0.225702,0.058006 0.375017,0.187508c0.105583,0.091572 0.209145,0.1691 0.312511,0.312513c0.08172,0.11338 0.131123,0.239037 0.250011,0.312513c0.053167,0.03286 0.043341,0.091179 0.125006,0.125006c0.057745,0.023918 0.080809,0.080809 0.125004,0.125004c0.044197,0.044197 -0.065845,0.091225 -0.187508,0.062504c-0.272041,-0.06422 -0.615171,-0.278749 -1.125046,-0.437519c-0.492104,-0.153236 -1.010592,-0.198381 -1.437561,-0.312513c-0.325169,-0.08692 -0.567425,-0.236874 -0.750031,-0.312511c-0.258242,-0.106968 -0.47845,-0.238943 -0.875036,-0.375015c-0.301451,-0.103432 -0.750031,-0.250011 -1.062544,-0.375017c-0.312513,-0.125004 -0.625026,-0.25001 -0.875036,-0.375015c-0.25001,-0.125006 -0.567987,-0.237129 -0.875036,-0.375015c-0.382483,-0.171761 -0.750031,-0.312513 -1.062544,-0.437517c-0.312513,-0.125006 -0.63334,-0.223104 -0.875036,-0.312513c-0.262158,-0.096979 -0.437518,-0.187508 -0.625027,-0.312513c-0.187508,-0.125006 -0.445769,-0.234716 -0.687529,-0.375015c-0.194913,-0.113111 -0.375015,-0.250011 -0.562523,-0.375015c-0.187508,-0.125006 -0.356606,-0.27165 -0.500021,-0.375017c-0.113379,-0.081718 -0.187508,-0.187508 -0.312512,-0.312511c-0.125006,-0.125006 -0.25001,-0.312513 -0.375016,-0.437519c-0.062502,-0.062502 -0.062503,-0.125006 -0.062503,-0.062502c0,0.125004 0.161557,0.573038 0.375016,1.062544c0.223458,0.512438 0.397344,0.953417 0.562523,1.312553c0.152288,0.331108 0.281109,0.620388 0.312513,0.93754c0.030794,0.310993 0.019391,0.689657 0.062503,1.125046c0.031404,0.317152 0.040349,0.625813 0.062503,0.93754c0.03133,0.440847 0.11009,0.940331 0.187508,1.312553c0.052476,0.252306 0.064934,0.504864 0.125005,0.875036c0.03166,0.195099 0.093345,0.49243 0.125005,0.687529c0.030035,0.185087 -0.062036,0.429882 0,0.437519c0.255775,0.031487 0.092527,-0.692205 0,-1.18755c-0.094639,-0.506647 -0.289455,-1.129257 -0.437517,-1.875078c-0.162376,-0.817928 -0.312513,-1.687571 -0.312513,-2.562607c0,-0.750031 0.049272,-1.252485 0,-1.750072c-0.031404,-0.31715 -0.08081,-0.481714 -0.125006,-0.437517c-0.088392,0.088392 -0.125005,0.562523 -0.187508,1.062544c-0.062502,0.500021 -0.182425,1.063299 -0.25001,1.500063c-0.058138,0.375717 -0.130052,0.811565 -0.187508,1.125046c-0.068541,0.373959 -0.156149,0.746153 -0.187508,1.125046c-0.025776,0.311449 0,0.625027 0,0.93754c0,0.25001 0,0.500021 0,0.812534c0,0.375015 0.031956,0.689402 0.062503,0.937538c0.031487,0.255774 0.053204,0.508381 0.125005,0.812534c0.06422,0.272041 0.155397,0.426502 0.187508,0.562523c0.04308,0.182491 0.013238,0.288475 0.062503,0.25001c0.203124,-0.158594 0.068875,-0.62755 0.125006,-1.250051c0.062756,-0.695976 0.405661,-1.609068 0.50002,-2.437601c0.113161,-0.993618 -0.031144,-1.558687 -0.062502,-1.93758c-0.005156,-0.062288 -0.020831,-0.008398 -0.062503,0.125006c-0.131778,0.421856 -0.11898,1.126169 -0.25001,1.812574c-0.119518,0.626099 -0.087395,1.13051 -0.187508,1.687571c-0.091167,0.507282 -0.15615,0.871159 -0.187508,1.250051c-0.025776,0.311449 -0.062503,0.625027 -0.062503,0.937538c0,0.250011 0,0.437519 0,0.562525c0,0.187508 0,0.375015 0,0.562523c0,0.187508 0,0.375015 0,0.562523c0,0.125006 0,0.250011 0,0.437519c0,0.187508 0,0.375015 0,0.500019c0,0.062504 0.009335,0.157866 0.062503,0.125006c0.237773,-0.146952 0.312512,-0.500021 0.562523,-0.812532c0.25001,-0.312513 0.527078,-0.550177 0.687529,-0.93754c0.151275,-0.36521 0.217498,-0.755922 0.312513,-1.18755c0.140288,-0.637287 0.375015,-1.250051 0.375015,-1.812574c0,-0.562523 0.125006,-1.000042 0,-1.000042c-0.062504,0 -0.028027,0.112858 -0.125005,0.375015c-0.17882,0.483395 -0.391847,0.992859 -0.625027,1.562565c-0.202287,0.494226 -0.293214,1.00453 -0.375015,1.312555c-0.050731,0.191029 -0.087637,0.122454 -0.062503,0c0.095709,-0.466286 0.367413,-1.003138 0.625026,-1.625069c0.182159,-0.439772 0.375015,-0.625025 0.312513,-0.625025c-0.062502,0 0.060044,0.383144 -0.062503,1.062544c-0.126501,0.701323 -0.375015,1.250051 -0.50002,1.625067c-0.062503,0.187508 -0.11187,0.379919 -0.187508,0.562525c-0.053483,0.12912 -0.10579,0.199133 -0.187509,0.312511c-0.051683,0.071709 -0.146099,0.206884 -0.25001,0.375017c-0.139411,0.225573 -0.25001,0.312511 -0.312512,0.437517c-0.062503,0.125006 -0.062503,0.187508 0,0.187508c0.312512,0 0.687529,0.062502 1.312554,0.062502c0.687529,0 1.312554,-0.062502 1.875077,-0.062502c0.437519,0 0.812534,0 1.062545,0c0.375015,0 0.625026,0 0.875036,0l0.187508,0l0.125005,0" id="svg_17" fill-opacity="null" stroke-opacity="null" stroke-width="1.5" stroke="#000" fill="none"/>
		<path d="m9.374559,19.778311c-0.062503,0 -0.076863,0.064177 -0.062503,0.125006c0.03211,0.136023 0.125005,0.250011 0.25001,0.437519c0.125005,0.187508 0.187508,0.312511 0.312513,0.500021c0.125005,0.187508 0.282521,0.332741 0.375015,0.437517c0.149141,0.168945 0.322468,0.225676 0.500021,0.312513c0.202441,0.09901 0.432172,0.261106 0.812533,0.437517c0.431822,0.200279 1.000041,0.250011 1.500062,0.312513c0.500021,0.062504 1.000798,0.119923 1.43756,0.187508c0.375717,0.05814 0.751087,0.118967 1.125047,0.187508c0.313479,0.057457 0.748428,0.131596 1.250051,0.250011c0.560829,0.132393 1.059626,0.156195 1.562565,0.187508c0.311909,0.019419 0.687529,0.125006 0.687529,0c0,-0.062502 -0.126081,0.004156 -0.375015,-0.062504c-0.439541,-0.117699 -1.114475,-0.348604 -2.125088,-0.625025c-1.052888,-0.287985 -2.194601,-0.467861 -3.125131,-0.687529c-0.693576,-0.163731 -1.168954,-0.347734 -1.500062,-0.500021c-0.179568,-0.082588 -0.386641,-0.230793 -0.500021,-0.312513c-0.143414,-0.103367 -0.297579,-0.276005 -0.500021,-0.375015c-0.177552,-0.086838 -0.338693,-0.088682 -0.437518,-0.187508c-0.098825,-0.098825 -0.199134,-0.168291 -0.312512,-0.25001c-0.143415,-0.103367 -0.282869,-0.178173 -0.25001,-0.125006c0.220428,0.356661 0.687529,0.437519 1.250051,0.687529c0.562524,0.250011 1.298779,0.544867 2.250093,0.812534c0.80272,0.225859 1.444768,0.328138 2.000083,0.437517c0.446448,0.087936 0.741402,0.217226 1.125048,0.312513c0.368977,0.091644 0.765284,0.135086 1.062544,0.25001c0.33993,0.131418 0.625025,0.375015 1.00004,0.500021c0.375017,0.125006 0.690321,0.172594 1.062546,0.250011c0.252304,0.052477 0.4361,0.13097 0.687529,0.187508c0.310936,0.06992 0.687527,0.125004 0.937538,0.125004c0.25001,0 0.294205,0.080811 0.25001,0.125006c-0.08839,0.08839 -0.440237,0.045759 -0.875036,0.125006c-0.566906,0.103325 -1.18755,0.187508 -1.750072,0.187508c-0.625025,0 -1.18755,0 -1.687569,0c-0.625027,0 -1.312555,-0.125006 -1.937581,-0.187508c-0.625026,-0.062504 -1.201609,-0.135748 -1.750072,-0.312513c-0.453056,-0.146017 -0.880733,-0.362246 -1.312554,-0.562523c-0.380363,-0.176411 -0.750031,-0.375015 -1.125047,-0.500021c-0.375016,-0.125006 -0.750031,-0.250011 -1.000042,-0.375015c-0.25001,-0.125006 -0.508334,-0.223104 -0.750031,-0.312513c-0.131079,-0.048489 -0.268317,-0.205814 -0.312512,-0.25001c-0.044196,-0.044197 -0.068622,-0.198483 -0.187508,-0.125006c-0.053167,0.03286 0.065462,0.121124 0.312512,0.312513c0.31638,0.245098 0.803496,0.514969 1.312554,0.812532c0.676118,0.395218 1.433635,0.638159 2.250093,0.875036c0.684416,0.198568 1.191526,0.233297 1.750072,0.375015c0.441051,0.111906 0.941733,0.157234 1.500062,0.250011c0.568453,0.09446 1.07226,0.128593 1.625069,0.25001c0.579147,0.127201 1.119686,0.280689 1.750072,0.375017c0.621225,0.092957 1.125046,0.125004 1.562565,0.125004c0.375015,0 0.750031,0 1.062544,0c0.187508,0 0.25001,0 0.187508,0c-0.062502,0 -0.247091,0.093695 -0.750031,0.125006c-0.873344,0.054373 -1.937918,0.02825 -3.12513,0c-1.313671,-0.03126 -2.376612,-0.177343 -3.250135,-0.312513c-0.751434,-0.116278 -1.433647,-0.273867 -2.125088,-0.375015c-0.560025,-0.081924 -1.190369,-0.240536 -1.625068,-0.375015c-0.377644,-0.116829 -0.701864,-0.208258 -0.937539,-0.312513c-0.206092,-0.091169 -0.276191,-0.151184 -0.375015,-0.25001c-0.098825,-0.098825 -0.209145,-0.231602 -0.312513,-0.375017c-0.081718,-0.113379 -0.168347,-0.283836 -0.25001,-0.25001c-0.057744,0.023918 -0.010324,0.290211 0.187508,0.562523c0.28692,0.394941 0.880034,0.740198 1.625068,1.125048c0.944036,0.487646 1.992177,0.967079 2.875119,1.18755c0.868242,0.216801 1.686804,0.379704 2.437602,0.500019c0.811735,0.130079 1.500721,0.243139 2.18759,0.312513c0.56312,0.056875 1.125048,0.062504 1.687571,0.062504c0.437517,0 0.883396,0.071802 1.18755,0c0.136021,-0.03211 0.125004,-0.125006 0.062502,-0.125006c-0.312513,0 -0.877195,0.040499 -1.625067,0.125006c-0.87833,0.099249 -1.750072,0.25001 -2.437601,0.25001c-0.562525,0 -1.117786,-0.033838 -1.625069,-0.125006c-0.55706,-0.100113 -1.31641,-0.234018 -2.125088,-0.437517c-0.691093,-0.17391 -1.461378,-0.252253 -2.000083,-0.500021c-0.331107,-0.152288 -0.482153,-0.325743 -0.625026,-0.500021c-0.112079,-0.136715 -0.168292,-0.324139 -0.25001,-0.437517c-0.103368,-0.143415 -0.168346,-0.153683 -0.25001,-0.18751c-0.057744,-0.023918 -0.143312,-0.044197 -0.187508,0c-0.088392,0.088392 -0.062503,0.250011 -0.062503,0.375017c0,0.187508 -0.029228,0.449949 0.062503,0.625025c0.14504,0.276817 0.432536,0.507116 0.875036,0.812534c0.370936,0.256023 0.976793,0.56864 1.625068,0.750031c0.732253,0.204887 1.494823,0.345894 2.187591,0.437519c0.746132,0.098684 1.498114,0.218731 2.250093,0.25001c0.686935,0.028572 1.375057,0 2.000082,0c0.687529,0 1.313679,-0.056477 2.000084,-0.187508c0.626099,-0.119518 1.250051,-0.312513 1.812574,-0.312513c0.187508,0 0.246628,-0.03546 0.062504,0c-0.330515,0.063652 -0.754705,0.228571 -1.375057,0.375015c-0.693575,0.163731 -1.370167,0.34329 -2.062586,0.437519c-0.684059,0.093092 -1.314898,0.119209 -2.000084,0.062502c-0.757786,-0.062716 -1.562563,-0.187506 -2.312595,-0.25001c-0.750031,-0.062502 -1.370868,-0.202082 -2.000083,-0.375015c-0.496981,-0.136591 -0.942087,-0.305132 -1.250051,-0.500021c-0.190429,-0.12051 -0.3558,-0.261637 -0.437518,-0.375015c-0.155051,-0.215122 -0.284334,-0.372213 -0.500021,-0.437519c-0.119641,-0.036224 -0.25001,0 -0.375015,0c-0.125006,0 -0.383265,0.109713 -0.625026,0.250011c-0.194912,0.113111 -0.432369,0.211687 -0.500021,0.375015c-0.023918,0.057745 -0.058985,0.139795 0,0.25001c0.106336,0.19869 0.431576,0.332001 0.812533,0.437519c0.555337,0.153818 1.252166,0.300436 2.000083,0.437517c0.62696,0.114912 1.192226,0.157484 1.687571,0.250011c0.506645,0.094639 0.989759,0.249634 1.562564,0.312511c0.559166,0.06138 1.062544,0 1.562565,0c0.500021,0 0.93754,0 1.500063,0c0.500021,0 1.000042,0 1.562565,0c0.625027,0 1.188965,-0.022625 1.750072,-0.062502c0.440849,-0.03133 0.711708,-0.244862 0.875036,-0.312513c0.057745,-0.023918 -0.004189,-0.032085 -0.125006,0c-0.48703,0.129339 -1.120857,0.452093 -1.750072,0.625027c-0.74547,0.204885 -1.497723,0.343725 -2.125088,0.375015c-0.561825,0.028021 -1.125624,0.02549 -1.687571,0c-0.689655,-0.031282 -1.500654,-0.158936 -2.18759,-0.187508c-0.751981,-0.031279 -1.375625,-0.120621 -1.875078,-0.187508c-0.438049,-0.058662 -0.874335,-0.12937 -1.250051,-0.187508c-0.436762,-0.067585 -0.812534,-0.125006 -1.250052,-0.187508c-0.437518,-0.062504 -0.812533,-0.125006 -1.125047,-0.125006c-0.25001,0 -0.437518,0 -0.500021,0c-0.062502,0 -0.06726,0.038584 -0.125005,0.062502c-0.081664,0.033827 -0.091179,0.168346 -0.125005,0.250011c-0.023918,0.057745 0,0.125004 0,0.187508c0,0.062502 0,0.125006 0,0.187508c0,0.062502 0.105844,0.091179 0.187508,0.125006c0.057744,0.023918 0.192524,0.019423 0.375015,0.062502c0.136022,0.03211 0.301497,0.092896 0.437518,0.125006c0.182491,0.043081 0.375015,0 0.625026,0c0.187508,0 0.563589,-0.025776 0.875036,0c0.378894,0.031359 0.812534,0.062502 1.375057,0.062502c0.437518,0 0.875036,0 1.18755,0c0.187508,0 0.501086,-0.025776 0.812533,0c0.378894,0.031359 0.746154,0.093647 1.125047,0.125006c0.311449,0.025776 0.625027,0.062502 0.750031,0.062502c0.125006,0 0.205814,-0.044197 0.250011,0c0.044197,0.044197 0.125006,0.062504 0.062502,0.062504c-0.25001,0 -0.687529,0 -1.312554,0c-0.562523,0 -1.187549,0 -1.625067,0c-0.375016,0 -0.626641,0.042479 -0.750031,0.062502c-0.195098,0.03166 -0.259525,0.077169 -0.375015,0.125006c-0.081663,0.033825 0,0.062502 0.062502,0.062502c0.312513,0 0.812534,0 1.43756,0c0.625026,0 1.184632,0.031191 1.68757,0.062502c0.436674,0.027185 0.871159,0.093647 1.250051,0.125006c0.498318,0.041241 0.93754,0 1.375057,0c0.375015,0 0.750032,0.125006 0.750032,0.062502c0,-0.062504 0.000845,0.027185 0.437517,0c0.502939,-0.031311 1.18755,-0.062502 1.750072,-0.062502c0.562523,0 1.000042,0 1.437559,0c0.375017,0 0.812534,0 1.18755,0c0.375015,0 0.687529,0 0.93754,0l0.062502,0" id="svg_18" fill-opacity="null" stroke-opacity="null" stroke-width="1.5" stroke="#000" fill="none"/>
		<path d="m19.437477,23.028446c0.062502,0 0.32268,0.044397 0.687529,-0.062502c0.4568,-0.133841 0.937538,-0.375015 1.312553,-0.437519c0.375015,-0.062502 0.812534,-0.187508 1.18755,-0.25001c0.375015,-0.062504 0.695841,-0.160603 0.937538,-0.250011c0.262157,-0.096979 0.504827,-0.233223 0.750032,-0.312511c0.320261,-0.103558 0.60083,-0.235548 0.937538,-0.375017c0.238089,-0.098619 0.426502,-0.155397 0.562523,-0.187508c0.121662,-0.028721 0.319536,-0.096695 0.625027,-0.187508c0.322634,-0.095909 0.755495,-0.299633 1.062544,-0.437517c0.254992,-0.114508 0.562523,-0.25001 0.812534,-0.375015c0.25001,-0.125004 0.481611,-0.27165 0.625025,-0.375017c0.113379,-0.081718 0.238302,-0.13793 0.375017,-0.25001c0.174278,-0.142874 0.375015,-0.375015 0.562523,-0.562523c0.187508,-0.187508 0.437517,-0.375015 0.625025,-0.562523c0.250011,-0.250011 0.451441,-0.420267 0.687529,-0.625027c0.200329,-0.173744 0.437519,-0.375015 0.687529,-0.562523c0.250011,-0.187508 0.421692,-0.398224 0.687531,-0.562523c0.23777,-0.146952 0.375015,-0.18751 0.500019,-0.250011c0.125004,-0.062502 0.300365,-0.15303 0.562523,-0.25001c0.241699,-0.089411 0.500023,-0.250011 0.625027,-0.312513c0.125004,-0.062503 0.247749,-0.19475 0.437519,-0.25001c0.247425,-0.072051 0.450745,-0.169638 0.625027,-0.312513c0.136715,-0.112078 0.178303,-0.198327 0.250008,-0.25001c0.11338,-0.081721 0.199135,-0.168289 0.312515,-0.25001c0.071705,-0.051682 0.080807,-0.205814 0.125004,-0.25001c0.044197,-0.044197 0.106701,-0.044195 0.062504,0c-0.044197,0.044197 -0.239929,0.260667 -0.437519,0.437519c-0.298206,0.26691 -0.644115,0.397622 -0.937538,0.562523c-0.272438,0.153108 -0.437519,0.25001 -0.687531,0.375015c-0.250008,0.125004 -0.519108,0.210112 -0.812534,0.375015c-0.272434,0.153107 -0.530354,0.303211 -0.812531,0.437519c-0.232693,0.110754 -0.500023,0.187508 -0.687531,0.25001c-0.187508,0.062504 -0.320763,0.109713 -0.562523,0.250011c-0.194912,0.113111 -0.410711,0.229977 -0.687529,0.375015c-0.175074,0.09173 -0.379917,0.174372 -0.562523,0.25001c-0.258244,0.106968 -0.422586,0.213503 -0.625027,0.312513c-0.177551,0.086838 -0.32247,0.10067 -0.500021,0.187508c-0.20244,0.09901 -0.312511,0.187508 -0.500021,0.312513c-0.187508,0.125006 -0.375015,0.187508 -0.562523,0.312513c-0.187508,0.125004 -0.398268,0.211576 -0.625025,0.375015c-0.143415,0.103369 -0.39827,0.211576 -0.625027,0.375015c-0.215122,0.155052 -0.445768,0.234716 -0.687529,0.375015c-0.194914,0.113111 -0.445829,0.160601 -0.687529,0.250011c-0.262156,0.096977 -0.567987,0.237129 -0.875036,0.375015c-0.25499,0.114508 -0.570835,0.160599 -0.812534,0.25001c-0.262157,0.096979 -0.492615,0.1994 -0.687529,0.312513c-0.241758,0.140299 -0.38497,0.163174 -0.562523,0.250011c-0.20244,0.09901 -0.263241,0.16964 -0.437517,0.312511c-0.068359,0.05604 -0.125006,0.125006 -0.187508,0.125006c-0.062504,0 -0.062035,0.070139 0,0.062502c0.255774,-0.031487 0.625025,-0.187506 1.250051,-0.437517c0.625025,-0.25001 1.261866,-0.475235 1.93758,-0.812534c0.700706,-0.349775 1.346846,-0.632528 1.875078,-1.000042c0.473022,-0.329102 0.795729,-0.705288 1.125046,-1.00004c0.29821,-0.266911 0.687529,-0.500021 1.062544,-0.687529c0.375015,-0.187508 0.750032,-0.375017 1.062544,-0.562525c0.312513,-0.18751 0.61968,-0.448614 1.000042,-0.625025c0.431822,-0.200279 0.806694,-0.384007 1.187551,-0.625027c0.307964,-0.194889 0.544037,-0.462562 0.875034,-0.687528c0.416763,-0.283258 0.916252,-0.535356 1.312553,-0.750031c0.418545,-0.226724 0.754932,-0.299378 0.937538,-0.375015c0.129124,-0.053484 0.192268,-0.038586 0.250011,-0.062503c0.081665,-0.033826 0.125008,-0.125005 0.250011,-0.125005c0.062504,0 0.129761,0.023919 0.187508,0c0.081665,-0.033826 0.125004,-0.062503 0.187508,-0.062503c0.062504,0 0.125004,-0.062503 0.187508,-0.062503c0.062504,0 0.134521,-0.077165 0.250011,-0.125005c0.081661,-0.033827 0.143311,-0.169203 0.187508,-0.125006c0.044197,0.044196 0,0.125006 0,0.187508c0,0.125006 0,0.375016 0,0.687529c0,0.375016 0.031017,0.813635 0,1.250052c-0.03133,0.440847 -0.062504,0.750031 -0.062504,1.125046c0,0.312513 -0.062504,0.625027 -0.062504,0.93754c0,0.312513 0.052013,0.628649 0,1.00004c-0.06311,0.450628 -0.190933,0.812119 -0.250008,1.312555c-0.066353,0.562082 -0.093941,1.063511 -0.125008,1.562565c-0.031311,0.502937 -0.047199,1.001953 -0.125004,1.562565c-0.052265,0.376579 -0.125008,0.687529 -0.062504,0.687529c0.062504,0 0,-0.500021 0,-1.312555c0,-1.062544 0,-2.312595 0,-3.562647l0,-1.18755" id="svg_19" fill-opacity="null" stroke-opacity="null" stroke-width="1.5" stroke="#000" fill="none"/>
		<path d="m35.625648,15.028114c-0.125004,0.312513 -0.274166,1.20315 -0.875038,2.625109c-0.587925,1.391323 -1.544846,2.763044 -2.187588,3.625151c-0.425953,0.571329 -0.698349,0.865831 -0.750032,0.937538c-0.081718,0.11338 -0.101086,0.129763 -0.125006,0.18751c-0.033825,0.081663 -0.080809,0.080807 -0.125006,0.125004c-0.044197,0.044197 -0.018307,0.080811 -0.062502,0.125006c-0.044195,0.044195 -0.247942,0.076509 -0.625025,0.125006c-0.684725,0.08806 -1.763134,0.151995 -3.062628,0.375015c-1.777939,0.305132 -3.244301,0.874914 -4.250177,0.937538c-0.436672,0.027185 -0.461437,-0.067259 -0.437517,-0.125006c0.135303,-0.326653 0.741257,-0.76016 1.750072,-1.625067c1.549248,-1.328245 3.417717,-2.840994 5.187716,-4.062668c1.298275,-0.896084 2.071001,-1.636854 2.250093,-1.500063c0.157074,0.119972 -0.298473,0.757875 -0.687529,1.437559c-0.543154,0.948893 -1.193947,1.930801 -2.187592,2.87512c-0.771536,0.733236 -1.168388,1.096369 -1.250051,1.062544c-0.057745,-0.023918 0.339405,-0.474142 1.000042,-1.18755c0.783058,-0.845608 1.868893,-2.339712 3.312637,-3.375139c0.958321,-0.687288 1.652233,-1.053106 1.812576,-0.937538c0.050705,0.036545 -0.180237,0.442236 -0.750031,1.312553c-0.864071,1.319801 -2.019815,2.554331 -3.750158,3.87516c-1.28215,0.978708 -2.08975,1.678135 -2.250093,1.562565c-0.050705,-0.036545 0.250011,-0.312513 0.812534,-0.875036c0.812534,-0.812532 1.698156,-1.675707 2.750114,-2.625109c0.820898,-0.740868 1.474174,-1.213436 1.562565,-1.125046c0.044197,0.044195 -0.004093,0.276672 -0.312511,0.875036c-0.476599,0.92465 -1.336536,2.182178 -2.500105,3.062626c-0.871878,0.659731 -1.916258,1.032831 -2.250093,0.750032c-0.290092,-0.245745 -0.091148,-1.00779 0.125006,-1.750072c0.221043,-0.759073 0.702242,-1.421047 1.125046,-1.812576c0.129711,-0.120117 0.153727,-0.184164 0.125006,-0.062502c-0.128441,0.544086 -0.872589,1.455383 -1.93758,2.250093c-1.1257,0.840012 -2.236984,1.311945 -2.687613,1.375057c-0.061897,0.008669 0.045591,-0.215292 0.750031,-0.625027c1.039251,-0.604477 2.386635,-1.037071 3.375141,-1.500063c0.50626,-0.23712 0.561197,-0.268162 0.437517,-0.25001c-0.645628,0.094759 -1.905098,0.452908 -3.687653,1.000042c-1.531546,0.470089 -3.001272,0.669527 -2.937622,1.00004c0.01182,0.061377 0.548052,-0.356361 1.625069,-0.687527c1.173746,-0.360909 3.095104,-0.22724 3.000124,-0.812534c-0.010012,-0.061695 -0.137081,-0.058285 -0.875036,0.125006c-1.150934,0.285864 -2.565628,0.822144 -3.625151,1.500061c-0.674227,0.431391 -0.812321,0.630182 -0.750031,0.625027c0.378893,-0.031359 1.241798,-0.379784 2.500103,-0.500021c1.494556,-0.142813 2.966587,-0.294363 3.812658,-0.062502c0.269579,0.073877 0.282907,0.380953 -0.312513,0.625025c-1.080397,0.442869 -2.689707,0.543255 -4.500187,0.750032c-1.50197,0.171543 -2.29936,0.33655 -2.250093,0.375015c0.40625,0.31719 2.12509,-0.375015 4.375183,-0.625027c2.250092,-0.25001 4.097408,-0.769712 4.312677,-0.25001c0.067652,0.163326 -0.797365,0.392033 -2.562605,0.687529c-2.04917,0.343023 -4.251257,0.211004 -5.375223,0.812532c-0.233799,0.125126 0.062622,0.204468 1.250051,0.187508c2.188259,-0.031254 4.809946,-0.312485 6.937788,-0.375015c1.311987,-0.038555 1.565735,0.010466 1.375057,0.062504c-0.863327,0.235613 -3.000875,0.283844 -5.937746,0.375015c-3.063702,0.095108 -6.032028,-0.3899 -5.937748,0.500021c0.006584,0.062157 0.937164,-0.129438 3.12513,-0.312513c3.062115,-0.256218 5.688681,-0.501778 7.875328,-0.437519c1.063921,0.031265 1.370218,0.325819 1.062544,0.500021c-0.897018,0.507885 -2.812166,0.505192 -4.937706,0.687529c-2.24963,0.192982 -3.873034,0.406235 -4.562689,0.437519c-0.062437,0.002832 0.500021,-0.062504 2.250093,-0.062504c2.375099,0 4.937704,0 6.687778,0c0.687527,0 0.56591,0.15377 -0.375017,0.250011c-1.745424,0.178528 -4.247337,0.187477 -6.312761,0.25001c-1.436901,0.043503 -2.125088,0.062502 -2.062586,0.062502c0.625027,0 1.875078,0 3.500145,0c1.562565,0 2.870443,-0.21874 3.187634,0.18751c0.038464,0.049265 -0.559456,0.225573 -1.875078,0.312511c-1.685053,0.111351 -3.382387,0.212784 -4.437685,0.437519c-0.252052,0.053677 -0.062502,0.062502 0.93754,0.062502c2.000082,0 4.563688,-0.025675 6.500269,0.062504c1.063278,0.048414 1.136576,0.187035 0.625027,0.25001c-1.364754,0.168009 -3.375141,0 -5.625235,0c-1.750072,0 -2.562605,0.062502 -2.500103,0.062502c0.562523,0 2.000084,0 4.125172,0c2.000082,0 3.750154,0 4.812698,0c0.250011,0 0.249668,0.122654 -0.187508,0.187508c-0.813192,0.120634 -1.813034,0.246164 -2.875118,0.375017c-0.500244,0.06069 -0.625027,0.125004 -0.500021,0.125004c0.562523,0 1.563189,-0.037439 2.687611,0c0.9391,0.031269 1.586159,0.039824 1.562565,0.125006c-0.068792,0.248352 -1.187382,0.058758 -2.562605,0c-1.562389,-0.066755 -3.002541,-0.094072 -4.000166,-0.187508c-0.501717,-0.046989 -0.625027,-0.062502 -0.312513,-0.062502c0.687529,0 1.687571,0 2.937622,0c0.937538,0 1.631105,0.033358 2.000082,0.125004c0.191822,0.047644 0.312513,0.062504 0.437519,0.062504c0.062502,0 -0.000786,-0.022154 -0.312513,0c-0.440849,0.03133 -1.000042,-0.125006 -1.000042,0.062502c0,0.062504 0.124023,-0.008432 0.625027,-0.062502c0.686378,-0.074076 1.625067,-0.062504 2.437601,-0.062504c0.812534,0 1.252865,-0.045822 1.625069,0c0.255772,0.031488 0.432877,0.093601 0.750031,0.125006c0.310989,0.030794 0.625027,0.062502 0.875034,0.062502c0.062504,0 -0.125004,0 -0.437519,0c-0.500019,0 -1.125046,0 -1.812572,0c-0.562523,0 -0.812534,0.062504 -0.750031,0.062504c0.125004,0 0.497101,-0.093695 1.000042,-0.125006c0.37429,-0.023302 0.750031,-0.062502 0.937538,-0.062502c0.0625,0 0.250008,0 0.625023,0c0.625027,0 1.12505,0 1.437561,0c0.062504,0 0,0 -0.062504,0c-0.125004,0 -0.205811,-0.018307 -0.250008,-0.062504c-0.044197,-0.044197 -0.041882,-0.250862 -0.062504,-0.500021c-0.031361,-0.378893 -0.062504,-0.750031 -0.062504,-1.125046c0,-0.375015 0,-0.812534 0,-1.250051c0,-0.375015 0,-0.687529 0,-0.93754c0,-0.25001 0.062504,-0.500019 0.062504,-0.750031c0,-0.312513 0,-0.750031 0,-1.125046c0,-0.437519 -0.031143,-0.808657 -0.062504,-1.18755c-0.030933,-0.373737 0,-0.750032 0,-1.125048c0,-0.375015 0,-0.687529 0,-0.937538c0,-0.125006 0,0 0,0.500021c0,0.687529 0,1.625067 0,2.437601c0,0.875036 0,1.625067 0,2.375097c0,0.437519 0.093346,0.679937 0.125008,0.875036c0.010014,0.061697 0,0.125006 0,0.250011c0,0.125006 0,0.312513 0,0.625027c0,0.25001 0.0625,0.500019 0.0625,0.625025c0,0.125006 -0.043079,0.192524 0,0.375015c0.032112,0.136023 0.062504,0.250011 0.062504,0.312513c0,0.125006 0.030842,0.24242 0.062504,0.437519c0.030037,0.185087 0.092892,0.301495 0.125004,0.437517c0.014359,0.060829 0.062504,0.125006 0.062504,0.250011c0,0.062502 0.062504,0.187508 0.062504,0.25001c0,0.062502 -0.069309,0.112555 -0.250011,0.062502c-0.351227,-0.097284 -0.868046,-0.517359 -1.625069,-0.812532c-0.681591,-0.265762 -1.263969,-0.482769 -1.500061,-0.687529c-0.066776,-0.057915 -0.159328,-0.309711 -0.375015,-0.375015c-0.179462,-0.054337 -0.312046,-0.054867 -0.250011,-0.062504c0.255775,-0.031487 0.750626,-0.096434 1.437561,-0.125006c0.75198,-0.031279 1.509777,-0.121418 2.062584,0c0.19305,0.0424 0.265442,0.083298 0.187508,0.125006c-0.280991,0.150379 -0.746143,0.197456 -1.375057,0.437519c-0.683472,0.260887 -1.307915,0.468616 -1.625069,0.500021c-0.062195,0.006159 -0.080612,-0.065186 -0.0625,-0.125006c0.065304,-0.215687 0.312511,-0.312511 0.625027,-0.562523c0.312511,-0.25001 0.500019,-0.437519 0.500019,-0.500021c0,-0.062504 -0.310562,-0.156229 -1.062546,-0.187508c-1.24897,-0.05195 -2.569096,-0.067297 -3.562647,0.062502c-0.316015,0.041285 -0.252623,0.050098 0.312513,-0.062502c1.058163,-0.210833 2.237034,-0.468367 3.250134,-0.562525c0.809048,-0.075193 1.625069,0.187508 1.625069,0c0,-0.062504 -0.502975,-0.030773 -1.312553,0.062504c-0.816692,0.094097 -1.906483,-0.004639 -1.875078,0.312513c0.006159,0.062199 0.172943,-0.051275 0.750032,-0.187508c0.860271,-0.203083 1.694756,-0.283701 2.250092,-0.437519c0.190479,-0.052759 0.125004,-0.062502 0,-0.062502c-0.375015,0 -0.750031,0 -1.000042,0c-0.0625,0 0,0 0.062504,0c0.312511,0 0.759834,0.098734 1.125046,0.25001c0.12912,0.053484 -0.000004,0.250011 0.125004,0.250011c0.062504,0 0,-0.375017 0,-0.750032c0,-0.437517 0,-0.937538 0,-1.500061c0,-0.687529 0.062504,-1.250053 0.062504,-1.875078c0,-0.500021 0,-1.000042 0,-1.562565c0,-0.625027 0.062504,-1.062544 0.062504,-1.500063c0,-0.375015 -0.027187,-0.813377 0,-1.250051c0.031311,-0.502939 0.125004,-0.812534 0.125004,-1.062544c0,-0.312513 0,-0.687529 0,-1.250051c0,-0.437519 0,-0.562523 0,-0.687529c0,-0.062504 0.062504,-0.062504 0.062504,-0.187508c0,-0.125006 0,-0.062504 0,0.125004c0,0.625027 -0.075684,1.434359 -0.312515,2.437601c-0.264786,1.12166 -0.493843,2.177395 -0.625023,3.062628c-0.110325,0.744501 -0.221695,1.302843 -0.312515,1.687571c-0.10154,0.430136 -0.250011,0.687529 -0.187508,0.687529c0.062504,0 -0.043247,-0.194838 0.062504,-0.687529c0.178406,-0.831198 0.517456,-1.684641 0.687527,-2.750114c0.139328,-0.872871 0.125008,-1.437559 0.125008,-1.750072c0,-0.062504 0.017723,0.000629 0,0.25001c-0.06266,0.881697 -0.332722,2.371344 -0.625027,4.000166c-0.26862,1.496843 -0.281212,2.622513 -0.312511,3.187634c-0.017281,0.312033 0,0.375015 0,0.187508c0,-0.562525 0.03286,-1.308994 0.125004,-2.312597c0.097313,-1.059923 0.281239,-2.123287 0.312511,-2.93762c0.019188,-0.499653 0,-0.687529 0,-0.625027c0,0.187508 -0.108231,1.267323 -0.500019,2.875118c-0.416706,1.710051 -0.937538,3.187634 -1.18755,3.937664c-0.062504,0.187508 -0.062504,0.125006 -0.062504,0.062502c0,-0.687529 0.250011,-1.875076 0.500023,-3.250134c0.250008,-1.375057 0.499863,-2.618448 0.562523,-3.500145c0.035446,-0.498762 0.009075,-0.624365 0,-0.562525c-0.094757,0.64563 -0.430992,1.938978 -0.875038,4.000166c-0.431179,2.001459 -0.812061,3.301111 -0.875034,3.812658c-0.007637,0.062035 -0.007416,-0.001575 0.062504,-0.312511c0.169613,-0.75428 0.312515,-1.750074 0.562523,-2.87512c0.250011,-1.125048 0.350685,-1.940819 0.437515,-2.500103c0.048893,-0.31493 0.017742,0.341688 -0.562523,1.812574c-0.605553,1.534988 -1.430269,2.81731 -1.875076,3.500145c-0.123003,0.188828 -0.160368,0.122999 -0.125006,-0.187508c0.09436,-0.828533 0.377468,-1.884432 0.562523,-2.875118c0.189278,-1.013294 0.312513,-1.687571 0.312513,-2.000084c0,-0.062502 0.030546,0.001873 0,0.25001c-0.094461,0.767323 -0.594017,1.79764 -0.937538,2.562607c-0.137886,0.307049 -0.125006,0.375015 -0.125006,0.312513c0,-0.375015 0.23764,-1.363583 0.500021,-2.625109c0.232252,-1.116669 0.275761,-2.04038 0.500021,-2.062586c0.087961,-0.008709 0.041542,0.127731 0.125004,0.687529c0.150038,1.006346 0.39188,2.185627 0.500021,3.187632c0.074076,0.686378 0.054867,1.062075 0.062504,1.000042c0.031488,-0.255774 0.156178,-0.7467 0.187508,-1.18755c0.026585,-0.374071 0.062504,-0.750031 0.062504,-1.000042l0,-0.125004l0,-0.062504" id="svg_20" fill-opacity="null" stroke-opacity="null" stroke-width="1.5" stroke="#000" fill="none"/>
   </symbol>
</svg>
